<svg width="25" height="24" viewBox="0 0 25 24" fill="none" xmlns="http://www.w3.org/2000/svg">
<path d="M12.6134 0C5.98921 0 0.613403 5.37581 0.613403 12C0.613403 18.6242 5.98921 24 12.6134 24C19.2376 24 24.6134 18.6242 24.6134 12C24.6134 5.37581 19.2376 0 12.6134 0ZM17.486 17.6565C17.2828 17.6565 17.157 17.5935 16.9682 17.4823C13.9489 15.6629 10.436 15.5855 6.96663 16.2968C6.77792 16.3452 6.53115 16.4226 6.39082 16.4226C5.92147 16.4226 5.62631 16.05 5.62631 15.6581C5.62631 15.1597 5.92147 14.9226 6.28437 14.8452C10.2473 13.9694 14.2973 14.0468 17.7521 16.1129C18.0473 16.3016 18.2215 16.471 18.2215 16.9113C18.2215 17.3516 17.8779 17.6565 17.486 17.6565ZM18.7876 14.4823C18.536 14.4823 18.3666 14.371 18.1924 14.279C15.1682 12.4887 10.6586 11.7677 6.64727 12.8565C6.41502 12.9194 6.28921 12.9823 6.07147 12.9823C5.55373 12.9823 5.13276 12.5613 5.13276 12.0435C5.13276 11.5258 5.38437 11.1823 5.88276 11.0419C7.22792 10.6645 8.60211 10.3839 10.615 10.3839C13.7553 10.3839 16.7892 11.1629 19.1795 12.5855C19.5715 12.8177 19.7263 13.1177 19.7263 13.5387C19.7215 14.0613 19.315 14.4823 18.7876 14.4823ZM20.2876 10.7952C20.036 10.7952 19.8811 10.7323 19.6634 10.6065C16.2182 8.55 10.0586 8.05645 6.07147 9.16935C5.89727 9.21774 5.67953 9.29516 5.44727 9.29516C4.80856 9.29516 4.31985 8.79677 4.31985 8.15323C4.31985 7.49516 4.72631 7.12258 5.16179 6.99677C6.86502 6.49839 8.77147 6.26129 10.8473 6.26129C14.3795 6.26129 18.0811 6.99677 20.786 8.57419C21.1634 8.79193 21.4102 9.09194 21.4102 9.66774C21.4102 10.3258 20.8779 10.7952 20.2876 10.7952Z" fill="white"/>
</svg>
