<svg width="81" height="36" viewBox="0 0 81 36" fill="none" xmlns="http://www.w3.org/2000/svg">
<path d="M4.74609 26.0785C4.74609 27.1154 3.90625 27.9535 2.87109 27.9535C1.83984 27.9535 1 27.1154 1 26.0785C1 25.0416 1.83984 24.2035 2.87109 24.2035C3.90625 24.2035 4.74609 25.0416 4.74609 26.0785Z" fill="#ED4343"/>
<path d="M2.87109 21.3268V14.2073" stroke="white" stroke-width="3.75029" stroke-miterlimit="10" stroke-linecap="round"/>
<path d="M4.74609 9.42145C4.74609 10.4545 3.90625 11.2964 2.87109 11.2964C1.83984 11.2964 1 10.4545 1 9.42145C1 8.38455 1.83984 7.54645 2.87109 7.54645C3.90625 7.54645 4.74609 8.38455 4.74609 9.42145Z" fill="#ED4343"/>
<path d="M12.3594 17.4034C12.3594 18.4403 11.5234 19.2784 10.4883 19.2784C9.45312 19.2784 8.61719 18.4403 8.61719 17.4034C8.61719 16.3704 9.45312 15.5284 10.4883 15.5284C11.5234 15.5284 12.3594 16.3704 12.3594 17.4034Z" fill="#ED4343"/>
<path d="M27.6328 18.4034C27.6328 19.4403 26.793 20.2784 25.7578 20.2784C24.7227 20.2784 23.8867 19.4403 23.8867 18.4034C23.8867 17.3704 24.7227 16.5284 25.7578 16.5284C26.793 16.5284 27.6328 17.3704 27.6328 18.4034Z" fill="#ED4343"/>
<path d="M33.375 23.5089V16.3894" stroke="white" stroke-width="3.75029" stroke-miterlimit="10" stroke-linecap="round"/>
<path d="M35.2461 11.6036C35.2461 12.6366 34.4102 13.4786 33.375 13.4786C32.3398 13.4786 31.5 12.6366 31.5 11.6036C31.5 10.5667 32.3398 9.72859 33.375 9.72859C34.4102 9.72859 35.2461 10.5667 35.2461 11.6036Z" fill="#ED4343"/>
<path d="M35.2461 28.1707C35.2461 29.1578 34.4102 29.9557 33.375 29.9557C32.3398 29.9557 31.5 29.1578 31.5 28.1707C31.5 27.1872 32.3398 26.3857 33.375 26.3857C34.4102 26.3857 35.2461 27.1872 35.2461 28.1707Z" fill="#ED4343"/>
<path d="M35.2461 6.33191C35.2461 7.36491 34.4102 8.20691 33.375 8.20691C32.3398 8.20691 31.5 7.36491 31.5 6.33191C31.5 5.29501 32.3398 4.45691 33.375 4.45691C34.4102 4.45691 35.2461 5.29501 35.2461 6.33191Z" fill="#ED4343"/>
<path d="M50.4766 20.5441C50.4766 21.5781 49.6406 22.4171 48.6055 22.4171C47.5703 22.4171 46.7344 21.5781 46.7344 20.5441C46.7344 19.5061 47.5703 18.6671 48.6055 18.6671C49.6406 18.6671 50.4766 19.5061 50.4766 20.5441Z" fill="#ED4343"/>
<path d="M50.4766 15.2675C50.4766 16.3044 49.6406 17.1425 48.6055 17.1425C47.5703 17.1425 46.7344 16.3044 46.7344 15.2675C46.7344 14.2345 47.5703 13.3925 48.6055 13.3925C49.6406 13.3925 50.4766 14.2345 50.4766 15.2675Z" fill="#ED4343"/>
<path d="M40.9883 24.8055V17.686" stroke="white" stroke-width="3.75029" stroke-miterlimit="10" stroke-linecap="round"/>
<path d="M40.9883 12.6908V5.57132" stroke="white" stroke-width="3.75029" stroke-miterlimit="10" stroke-linecap="round"/>
<path d="M71.4414 21.2341V14.1147" stroke="white" stroke-width="3.75029" stroke-miterlimit="10" stroke-linecap="round"/>
<path d="M71.4414 34V26.8805" stroke="white" stroke-width="3.75029" stroke-miterlimit="10" stroke-linecap="round"/>
<path d="M71.4258 9.11947V2" stroke="white" stroke-width="3.75029" stroke-miterlimit="10" stroke-linecap="round"/>
<path d="M79.086 27.5375V20.418" stroke="white" stroke-width="3.75029" stroke-miterlimit="10" stroke-linecap="round"/>
<path d="M79.0665 15.4228V8.30334" stroke="white" stroke-width="3.75029" stroke-miterlimit="10" stroke-linecap="round"/>
<path d="M42.8633 29.5572C42.8633 30.5902 42.0234 31.4322 40.9883 31.4322C39.957 31.4322 39.1172 30.5902 39.1172 29.5572C39.1172 28.5203 39.957 27.6822 40.9883 27.6822C42.0234 27.6822 42.8633 28.5203 42.8633 29.5572Z" fill="#ED4343"/>
<path d="M18.125 28.6633V21.5438" stroke="white" stroke-width="3.75029" stroke-miterlimit="10" stroke-linecap="round"/>
<path d="M19.9961 16.758C19.9961 17.791 19.1562 18.633 18.125 18.633C17.0898 18.633 16.25 17.791 16.25 16.758C16.25 15.7211 17.0898 14.883 18.125 14.883C19.1562 14.883 19.9961 15.7211 19.9961 16.758Z" fill="#ED4343"/>
<path d="M19.9961 11.4843C19.9961 12.5223 19.1562 13.3613 18.125 13.3613C17.0898 13.3613 16.25 12.5223 16.25 11.4843C16.25 10.4503 17.0898 9.6113 18.125 9.6113C19.1562 9.6113 19.9961 10.4503 19.9961 11.4843Z" fill="#ED4343"/>
<path d="M63.836 26.4464V19.3298" stroke="white" stroke-width="3.75029" stroke-miterlimit="10" stroke-linecap="round"/>
<path d="M65.7109 14.542C65.7109 15.58 64.8711 16.419 63.8359 16.419C62.8008 16.419 61.9648 15.58 61.9648 14.542C61.9648 13.508 62.8008 12.669 63.8359 12.669C64.8711 12.669 65.7109 13.508 65.7109 14.542Z" fill="#ED4343"/>
<path d="M65.7109 9.26941C65.7109 10.3063 64.8711 11.1444 63.8359 11.1444C62.8008 11.1444 61.9648 10.3063 61.9648 9.26941C61.9648 8.23641 62.8008 7.39441 63.8359 7.39441C64.8711 7.39441 65.7109 8.23641 65.7109 9.26941Z" fill="#ED4343"/>
<path d="M19.9961 6.21172C19.9961 7.24862 19.1562 8.08672 18.125 8.08672C17.0898 8.08672 16.25 7.24862 16.25 6.21172C16.25 5.17871 17.0898 4.33672 18.125 4.33672C19.1562 4.33672 19.9961 5.17871 19.9961 6.21172Z" fill="#ED4343"/>
<path d="M58.0938 22.6779C58.0938 23.711 57.2539 24.5529 56.2227 24.5529C55.1875 24.5529 54.3477 23.711 54.3477 22.6779C54.3477 21.641 55.1875 20.8029 56.2227 20.8029C57.2539 20.8029 58.0938 21.641 58.0938 22.6779Z" fill="#ED4343"/>
<path d="M58.0938 17.4034C58.0938 18.4403 57.2539 19.2784 56.2227 19.2784C55.1875 19.2784 54.3477 18.4403 54.3477 17.4034C54.3477 16.3704 55.1875 15.5284 56.2227 15.5284C57.2539 15.5284 58.0938 16.3704 58.0938 17.4034Z" fill="#ED4343"/>
<path d="M58.0938 12.1317C58.0938 13.1686 57.2539 14.0067 56.2227 14.0067C55.1875 14.0067 54.3477 13.1686 54.3477 12.1317C54.3477 11.0987 55.1875 10.2567 56.2227 10.2567C57.2539 10.2567 58.0938 11.0987 58.0938 12.1317Z" fill="#ED4343"/>
</svg>
