<svg id="Layer_1" data-name="Layer 1" xmlns="http://www.w3.org/2000/svg" viewBox="0 0 3705.03 2065.84"><defs><style>.cls-1{fill:#e84343;}.cls-2,.cls-3,.cls-4,.cls-5{fill:none;stroke-miterlimit:10;stroke-width:28.99px;}.cls-2,.cls-4{stroke:#fff;}.cls-2,.cls-3{stroke-linecap:round;}.cls-3,.cls-5{stroke:#000;}</style></defs><rect x="1668.68" width="2036.35" height="2065.84"/><rect class="cls-1" x="2670.58" y="682.29" width="583.15" height="644.15" rx="29.97"/><path class="cls-2" d="M2537.59,903.17h82.72a32.09,32.09,0,0,1,32.09,32.09v178.68a32.09,32.09,0,0,1-32.09,32.09h-82.72V1315.1a32.1,32.1,0,0,0,32.1,32.1h808.62" transform="translate(-418.29 29.49)"/><path class="cls-2" d="M2620.31,903.17h114.81a32.09,32.09,0,0,1,32.09,32.09v178.68a32.09,32.09,0,0,1-32.09,32.09h-6.67" transform="translate(-418.29 29.49)"/><path class="cls-2" d="M2842.76,1278.51h-1.25a32.1,32.1,0,0,1-32.1-32.1V935.26a32.1,32.1,0,0,1,32.1-32.09h82.71" transform="translate(-418.29 29.49)"/><path class="cls-3" d="M3105.85,903.17h82.72a32.09,32.09,0,0,1,32.09,32.09v178.68a32.09,32.09,0,0,1-32.09,32.09h-82.72" transform="translate(-418.29 29.49)"/><path class="cls-3" d="M3188.57,1146.07h114.81a32.1,32.1,0,0,0,32.09-32.1V935.3a32.1,32.1,0,0,0-32.09-32.1h-6.67" transform="translate(-418.29 29.49)"/><path class="cls-2" d="M3030.71,1278.51H3032a32.1,32.1,0,0,0,32.09-32.1V935.26A32.09,32.09,0,0,0,3032,903.17h-82.72" transform="translate(-418.29 29.49)"/><path class="cls-2" d="M2502,932.66h28.95a0,0,0,0,1,0,0v228.39a14.47,14.47,0,0,1-14.47,14.47h0a14.47,14.47,0,0,1-14.47-14.47V932.66A0,0,0,0,1,2502,932.66Z"/><line class="cls-2" x1="2847.28" y1="1202.76" x2="2847.28" y2="1326.44"/><line class="cls-3" x1="3160.89" y1="1175.56" x2="3160.89" y2="1326.44"/><line class="cls-2" x1="2892.17" y1="1202.76" x2="2892.17" y2="1326.44"/><path class="cls-3" d="M3495.29,903.2V1114a32.1,32.1,0,0,1-32.1,32.1H3411a32.1,32.1,0,0,1-32.1-32.1V903.2" transform="translate(-418.29 29.49)"/><polyline class="cls-3" points="3238.39 1030.52 3238.39 1175.59 3160.91 1175.59 3122.01 1175.59 3122.01 1097.53"/><line class="cls-3" x1="3238.39" y1="932.69" x2="3122.01" y2="932.69"/><path class="cls-2" d="M3048.35,869.31a99.11,99.11,0,0,1,0-198.22" transform="translate(-418.29 29.49)"/><path class="cls-3" d="M3619.45,869.31a99.11,99.11,0,1,1,0-198.22" transform="translate(-418.29 29.49)"/><path class="cls-2" d="M3447.33,1146.07v169a32.1,32.1,0,0,0,32.09,32.1H3637.2" transform="translate(-418.29 29.49)"/><line class="cls-3" x1="3238.41" y1="932.69" x2="3191.07" y2="987.85"/><line class="cls-3" x1="3122.01" y1="932.69" x2="3238.41" y2="1030.54"/><polyline class="cls-3" points="3122.01 1097.51 3160.89 1097.51 3160.89 1175.56"/><path class="cls-2" d="M3105.85,903.17h82.72a32.09,32.09,0,0,1,32.09,32.09v178.68a32.09,32.09,0,0,1-32.09,32.09h-82.72" transform="translate(-418.29 29.49)"/><path class="cls-2" d="M3188.57,1146.07h114.81a32.1,32.1,0,0,0,32.09-32.1V935.3a32.1,32.1,0,0,0-32.09-32.1h-6.67" transform="translate(-418.29 29.49)"/><line class="cls-4" x1="2847.28" y1="1202.76" x2="2847.28" y2="1326.44"/><line class="cls-4" x1="3160.89" y1="1175.56" x2="3160.89" y2="1326.44"/><line class="cls-4" x1="2892.17" y1="1202.76" x2="2892.17" y2="1326.44"/><path class="cls-2" d="M3495.29,903.2V1114a32.1,32.1,0,0,1-32.1,32.1H3411a32.1,32.1,0,0,1-32.1-32.1V903.2" transform="translate(-418.29 29.49)"/><polyline class="cls-2" points="3238.39 1030.52 3238.39 1175.59 3160.91 1175.59 3122.01 1175.59 3122.01 1097.53"/><line class="cls-2" x1="3238.39" y1="932.69" x2="3122.01" y2="932.69"/><path class="cls-2" d="M3619.45,869.31a99.11,99.11,0,1,1,0-198.22" transform="translate(-418.29 29.49)"/><line class="cls-4" x1="3029.03" y1="1175.56" x2="3029.03" y2="1326.44"/><line class="cls-2" x1="3238.41" y1="932.69" x2="3191.07" y2="987.85"/><line class="cls-2" x1="3122.01" y1="932.69" x2="3238.41" y2="1030.54"/><polyline class="cls-2" points="3122.01 1097.51 3160.89 1097.51 3160.89 1175.56"/><rect class="cls-1" x="565.77" y="682.29" width="583.15" height="644.15" rx="29.97"/><path class="cls-3" d="M432.79,903.17H515.5a32.1,32.1,0,0,1,32.1,32.09v178.68A32.1,32.1,0,0,1,515.5,1146H432.79V1315.1a32.1,32.1,0,0,0,32.09,32.1H1273.5" transform="translate(-418.29 29.49)"/><path class="cls-3" d="M515.5,903.17H630.31a32.1,32.1,0,0,1,32.1,32.09v178.68a32.1,32.1,0,0,1-32.1,32.09h-6.66" transform="translate(-418.29 29.49)"/><path class="cls-3" d="M738,1278.51H736.7a32.1,32.1,0,0,1-32.1-32.1V935.26a32.1,32.1,0,0,1,32.1-32.09h82.71" transform="translate(-418.29 29.49)"/><path class="cls-3" d="M1001.05,903.17h82.71a32.1,32.1,0,0,1,32.1,32.09v178.68a32.1,32.1,0,0,1-32.1,32.09h-82.71" transform="translate(-418.29 29.49)"/><path class="cls-3" d="M1083.76,1146.07h114.81a32.1,32.1,0,0,0,32.1-32.1V935.3a32.1,32.1,0,0,0-32.1-32.1h-6.66" transform="translate(-418.29 29.49)"/><path class="cls-3" d="M925.9,1278.51h1.25a32.1,32.1,0,0,0,32.09-32.1V935.26a32.09,32.09,0,0,0-32.09-32.09H844.43" transform="translate(-418.29 29.49)"/><path class="cls-3" d="M397.19,932.66h28.95a0,0,0,0,1,0,0v228.39a14.47,14.47,0,0,1-14.47,14.47h0a14.47,14.47,0,0,1-14.47-14.47V932.66A0,0,0,0,1,397.19,932.66Z"/><line class="cls-3" x1="742.47" y1="1202.76" x2="742.47" y2="1326.44"/><line class="cls-3" x1="1056.08" y1="1175.56" x2="1056.08" y2="1326.44"/><line class="cls-3" x1="787.36" y1="1202.76" x2="787.36" y2="1326.44"/><path class="cls-3" d="M1390.48,903.2V1114a32.1,32.1,0,0,1-32.1,32.1h-52.21a32.1,32.1,0,0,1-32.1-32.1V903.2" transform="translate(-418.29 29.49)"/><polyline class="cls-3" points="1133.58 1030.52 1133.58 1175.59 1056.1 1175.59 1017.2 1175.59 1017.2 1097.53"/><line class="cls-3" x1="1133.58" y1="932.69" x2="1017.2" y2="932.69"/><path class="cls-3" d="M943.54,869.31a99.11,99.11,0,0,1,0-198.22" transform="translate(-418.29 29.49)"/><path class="cls-3" d="M1514.64,869.31a99.11,99.11,0,0,1,0-198.22" transform="translate(-418.29 29.49)"/><path class="cls-3" d="M1342.52,1146.07v169a32.1,32.1,0,0,0,32.09,32.1H1532.4" transform="translate(-418.29 29.49)"/><line class="cls-3" x1="1133.61" y1="932.69" x2="1086.26" y2="987.85"/><line class="cls-3" x1="1017.2" y1="932.69" x2="1133.61" y2="1030.54"/><polyline class="cls-3" points="1017.2 1097.51 1056.09 1097.51 1056.09 1175.56"/><path class="cls-3" d="M1001.05,903.17h82.71a32.1,32.1,0,0,1,32.1,32.09v178.68a32.1,32.1,0,0,1-32.1,32.09h-82.71" transform="translate(-418.29 29.49)"/><path class="cls-3" d="M1083.76,1146.07h114.81a32.1,32.1,0,0,0,32.1-32.1V935.3a32.1,32.1,0,0,0-32.1-32.1h-6.66" transform="translate(-418.29 29.49)"/><line class="cls-5" x1="742.47" y1="1202.76" x2="742.47" y2="1326.44"/><line class="cls-5" x1="1056.08" y1="1175.56" x2="1056.08" y2="1326.44"/><line class="cls-5" x1="787.36" y1="1202.76" x2="787.36" y2="1326.44"/><path class="cls-3" d="M1390.48,903.2V1114a32.1,32.1,0,0,1-32.1,32.1h-52.21a32.1,32.1,0,0,1-32.1-32.1V903.2" transform="translate(-418.29 29.49)"/><polyline class="cls-3" points="1133.58 1030.52 1133.58 1175.59 1056.1 1175.59 1017.2 1175.59 1017.2 1097.53"/><line class="cls-3" x1="1133.58" y1="932.69" x2="1017.2" y2="932.69"/><path class="cls-3" d="M1514.64,869.31a99.11,99.11,0,0,1,0-198.22" transform="translate(-418.29 29.49)"/><line class="cls-5" x1="924.23" y1="1175.56" x2="924.23" y2="1326.44"/><line class="cls-3" x1="1133.61" y1="932.69" x2="1086.26" y2="987.85"/><line class="cls-3" x1="1017.2" y1="932.69" x2="1133.61" y2="1030.54"/><polyline class="cls-3" points="1017.2 1097.51 1056.09 1097.51 1056.09 1175.56"/></svg>